<svg width="18" height="15" viewBox="0 0 18 15" fill="none" xmlns="http://www.w3.org/2000/svg">
<path d="M6.30412 0.0539305C6.10075 0.153949 6.04741 0.270637 6.03741 0.65404L6.02407 0.997437H4.72383C3.2869 0.997437 3.27023 1.00077 3.12021 1.21081C3.05019 1.31083 3.04686 1.3475 3.03686 2.15431L3.02686 2.9978H10.0481H17.0694L17.0594 2.15431C17.0461 0.910754 17.1694 0.997437 15.3691 0.997437H14.0655V0.694048C14.0655 0.207292 13.9222 0.0139232 13.5655 0.0139232C13.2087 0.0139232 13.0654 0.207292 13.0654 0.694048V0.997437H11.7985H10.5316V0.694048C10.5316 0.207292 10.3882 0.0139232 10.0315 0.0139232C9.67474 0.0139232 9.53138 0.207292 9.53138 0.694048V0.997437H8.28115H7.03092V0.68738C7.03092 0.430666 7.01759 0.360653 6.95424 0.250633C6.82422 0.020591 6.54417 -0.0660915 6.30412 0.0539305Z" fill="#00CE7B"/>
<path d="M2.98342 4.41806C2.8534 6.89852 1.82988 9.43231 0.346273 10.9459C0.189578 11.1093 0.0428841 11.2793 0.0262143 11.3227C-0.0538003 11.5394 0.0562198 11.8261 0.262924 11.9361C0.372945 11.9961 0.616322 11.9995 7.02416 11.9995C13.5154 11.9995 13.672 11.9995 13.7921 11.9361C13.8587 11.8994 14.0221 11.7627 14.1521 11.626C15.0723 10.6825 15.8958 9.27562 16.3792 7.82202C16.7293 6.77516 16.9693 5.50159 17.0227 4.43807L17.0427 3.99799H10.0247H3.00676L2.98342 4.41806Z" fill="#00CE7B"/>
<path d="M16.9692 9.11892C16.5158 10.2258 15.6623 11.526 14.8622 12.3295C14.4988 12.6896 14.3354 12.8129 14.0721 12.913L13.882 12.983L8.45436 12.993L3.03003 12.9996V13.8031C3.03003 14.5399 3.0367 14.6133 3.09671 14.7333C3.14005 14.82 3.21006 14.89 3.29674 14.9333C3.42677 15 3.48011 15 10.048 15C16.6158 15 16.6692 15 16.7992 14.9333C16.8859 14.89 16.9559 14.82 16.9993 14.7333C17.0659 14.6033 17.0659 14.5533 17.0593 11.7627L17.0493 8.92222L16.9692 9.11892Z" fill="#00CE7B"/>
</svg>
