<svg width="18" height="15" viewBox="0 0 18 15" fill="none" xmlns="http://www.w3.org/2000/svg">
<path d="M16.7143 6.2555H3.85714L8.08714 2.14003C8.20765 2.02374 8.3033 1.88539 8.36857 1.73296C8.43385 1.58053 8.46745 1.41703 8.46745 1.25189C8.46745 1.08676 8.43385 0.923259 8.36857 0.770825C8.3033 0.618391 8.20765 0.48004 8.08714 0.363753C7.84625 0.130771 7.52038 0 7.18071 0C6.84105 0 6.51518 0.130771 6.27429 0.363753L0.758572 5.74263C0.275673 6.20965 0.00287073 6.84395 0 7.5064V7.5064C0.00625704 8.1645 0.2788 8.7937 0.758572 9.25766L6.27429 14.6365C6.39416 14.7523 6.53631 14.844 6.69262 14.9064C6.84892 14.9688 7.01632 15.0006 7.18526 15C7.3542 14.9994 7.52136 14.9665 7.67721 14.903C7.83306 14.8396 7.97454 14.7469 8.09357 14.6303C8.21261 14.5136 8.30686 14.3753 8.37096 14.2233C8.43506 14.0712 8.46774 13.9083 8.46714 13.744C8.46655 13.5796 8.43268 13.417 8.36748 13.2653C8.30228 13.1137 8.20702 12.9761 8.08714 12.8603L3.85714 8.7573H16.7143C17.0553 8.7573 17.3823 8.62551 17.6234 8.39092C17.8645 8.15633 18 7.83816 18 7.5064C18 7.17464 17.8645 6.85647 17.6234 6.62188C17.3823 6.38729 17.0553 6.2555 16.7143 6.2555Z" fill="#1E1E1E"/>
</svg>
