<svg width="14" height="17" viewBox="0 0 14 17" fill="none" xmlns="http://www.w3.org/2000/svg">
<path d="M6.99998 14.6999C4.29505 14.6969 2.10308 12.5049 2.1 9.79996V3.49996C2.1 3.35995 2.10909 3.21997 2.121 3.08557C0.835799 3.63767 0.0021 4.90118 0 6.29995V13.2999C0.00229687 15.232 1.56794 16.7976 3.49998 16.7999H7.69997C9.09874 16.7978 10.3622 15.9641 10.9144 14.6789C10.7744 14.6909 10.64 14.6999 10.5 14.6999H6.99998Z" fill="#E7E7E7"/>
<path d="M13.4085 2.29037L11.8097 0.639083C11.6336 0.460812 11.4271 0.315486 11.2 0.209961V2.79995H13.7619C13.6701 2.61347 13.551 2.4417 13.4085 2.29037Z" fill="#E7E7E7"/>
<path d="M10.5 2.79985C10.5 3.18645 10.8134 3.49984 11.2 3.49984H13.9762C13.9246 3.04532 13.7252 2.6203 13.4085 2.29024L11.8097 0.638952C11.46 0.284446 10.996 0.0652259 10.5 0.0201416V2.79985Z" fill="#E7E7E7"/>
<path d="M9.10001 2.79999V0H7.00001C5.06798 0.00232969 3.50233 1.56798 3.5 3.50001V9.8C3.50233 11.732 5.06798 13.2977 7.00001 13.3H10.5C12.432 13.2977 13.9977 11.732 14 9.8V4.89999H11.2C10.0402 4.89999 9.10001 3.95981 9.10001 2.79999Z" fill="#E7E7E7"/>
</svg>
