<svg width="34" height="30" viewBox="0 0 34 30" fill="none" xmlns="http://www.w3.org/2000/svg">
<path d="M33.8292 6.31416C33.72 6.93608 33.6089 7.55712 33.5006 8.17904C33.4653 8.38226 33.4336 8.58635 33.3948 8.82461L9.48969 3.7932C9.54608 3.40603 9.59895 3.032 9.65534 2.65447C9.71437 2.26468 9.77958 1.87663 9.83773 1.48684C9.99458 0.420819 10.8396 -0.177449 11.9049 0.046792C15.0047 0.692653 18.1042 1.34231 21.2035 1.99576C24.8945 2.77185 28.5821 3.56195 32.2767 4.32051C33.0697 4.48344 33.5737 4.90477 33.8292 5.65019V6.31416Z" fill="#201F1F"/>
<path d="M32.4973 12.3915C32.2259 13.6748 31.9607 14.9361 31.6928 16.1966C31.4831 17.1812 31.2743 18.1657 31.0575 19.1477C30.8284 20.1892 30.0187 20.6981 28.9639 20.4747C28.3401 20.3433 27.7163 20.2119 27.0915 20.0823C27.0105 20.0648 26.9259 20.0621 26.8052 20.049C27.0052 20.7664 27.2008 21.4505 27.385 22.1302C27.6061 22.9536 27.3215 23.7008 26.6316 24.0801C26.4357 24.1805 26.2287 24.2579 26.0148 24.3105C19.2994 26.1657 12.5825 28.0183 5.86415 29.8683C4.70898 30.1863 3.89746 29.7343 3.5732 28.5816C2.40893 24.4115 1.2473 20.2403 0.0883199 16.0678C-0.212147 14.9878 0.264544 14.1671 1.35803 13.8622C3.30622 13.32 5.25352 12.7752 7.20699 12.2522C7.48543 12.1778 7.59557 12.0534 7.64756 11.7862C7.92776 10.404 8.22558 9.02527 8.51812 7.64479C8.53574 7.55719 8.5613 7.47748 8.59302 7.36011C9.2759 7.50113 9.95085 7.63866 10.624 7.78056C12.9476 8.27109 15.2702 8.76599 17.5964 9.24864C17.7787 9.28004 17.9656 9.27046 18.1436 9.22061C19.4089 8.88775 20.6646 8.51985 21.9325 8.2089C22.692 8.02144 23.4586 8.45328 23.7423 9.18382C23.8885 9.57256 24.0063 9.97127 24.0948 10.3769C24.1433 10.5871 24.2525 10.658 24.442 10.6974C26.982 11.2277 29.522 11.76 32.062 12.2943C32.203 12.3241 32.3378 12.3565 32.4973 12.3915ZM2.84363 20.9214C2.87094 21.0414 2.88856 21.1369 2.91412 21.2306C3.56498 23.5589 4.21643 25.8866 4.86847 28.2137C4.99183 28.6516 5.07906 28.7068 5.52667 28.5833L25.6817 23.0176C26.1337 22.8923 26.1813 22.81 26.0571 22.3659C25.593 20.7016 25.1281 19.0373 24.6623 17.373C24.4508 16.6179 24.2411 15.8611 24.0234 15.0798L2.84363 20.9214ZM23.2269 12.2321C23.0075 11.4437 22.7987 10.6869 22.5881 9.93187C22.4665 9.4939 22.3766 9.44485 21.9246 9.57011C15.3255 11.3903 8.72666 13.2102 2.12815 15.0299C1.20119 15.2856 1.23379 15.2366 1.49813 16.1502C1.68229 16.7887 1.85852 17.4291 2.04003 18.0773L23.2269 12.2321ZM27.5039 12.9959C27.0422 12.9959 26.7893 13.1711 26.7065 13.5329C26.5302 14.2984 26.3655 15.0675 26.2236 15.8401C26.1355 16.3254 26.3249 16.5952 26.8034 16.702C27.5524 16.8702 28.304 17.0285 29.0582 17.1768C29.5217 17.2644 29.8257 17.0708 29.9314 16.6066C30.1035 15.8515 30.2648 15.0938 30.4152 14.3335C30.5033 13.9078 30.2989 13.6073 29.8794 13.4926C29.7032 13.4435 29.5147 13.4129 29.3323 13.3752L27.5039 12.9959Z" fill="#201F1F"/>
<path d="M4.92407 23.9213C4.92407 23.6095 5.10735 23.3888 5.42103 23.2968C6.21405 23.0664 7.00707 22.8457 7.80009 22.6398C8.17986 22.5426 8.50941 22.7274 8.62483 23.1111C8.86186 23.8951 9.08479 24.6878 9.28745 25.4761C9.39054 25.8791 9.20462 26.19 8.79313 26.3127C8.01421 26.5427 7.23088 26.7571 6.44315 26.9556C6.05457 27.0537 5.74793 26.9188 5.63867 26.5702C5.38138 25.7477 5.1655 24.912 4.93376 24.0808C4.92629 24.028 4.92305 23.9747 4.92407 23.9213Z" fill="#201F1F"/>
</svg>
