<svg width="31" height="30" viewBox="0 0 31 30" fill="none" xmlns="http://www.w3.org/2000/svg">
<path d="M27.7686 30H7.31874C7.10735 29.964 6.89596 29.9258 6.68378 29.8922C3.26381 29.3453 0.602964 26.6431 0.0827386 23.1949C-0.417055 19.8607 1.38566 16.4858 4.45672 14.9922C5.28323 14.595 6.1696 14.3351 7.08063 14.2227V13.8586C7.08063 10.1495 7.08063 6.4408 7.08063 2.73267C7.08063 1.76319 7.45705 0.977292 8.27589 0.451538C8.60437 0.240612 9.00986 0.146867 9.37606 0H23.5251C23.7608 0.18749 24.0092 0.356231 24.2205 0.564814C26.0398 2.36472 27.8472 4.16853 29.6625 5.96296C29.7978 6.0891 29.9045 6.24252 29.9754 6.41295C30.0462 6.58337 30.0797 6.76688 30.0735 6.95119C30.0646 10.9515 30.063 14.9523 30.0688 18.9537C30.0688 21.7348 30.075 24.5159 30.0688 27.297C30.0648 28.4641 29.5116 29.3023 28.4421 29.789C28.2224 29.8737 27.9974 29.9442 27.7686 30ZM22.4068 1.75928H9.87978C9.19217 1.75928 8.85112 2.09989 8.85112 2.78579C8.85112 6.49653 8.85112 10.2067 8.85112 13.9164V14.2196C10.4849 14.4774 11.6016 14.9226 12.7222 15.7609C12.8829 15.8855 13.0827 15.9497 13.2864 15.9421C17.127 15.9364 20.9672 15.9351 24.8068 15.9382C24.905 15.9382 25.0032 15.9343 25.1015 15.9382C25.3195 15.9492 25.5257 16.0402 25.6802 16.1935C25.8347 16.3469 25.9266 16.5517 25.938 16.7684C25.9494 16.9852 25.8796 17.1984 25.7421 17.367C25.6046 17.5356 25.4091 17.6475 25.1934 17.6811C25.0766 17.6944 24.9588 17.6983 24.8414 17.6928H14.5807C15.2826 18.748 15.7262 19.952 15.8757 21.2082H16.5461C19.3452 21.2082 22.1444 21.2082 24.9435 21.2082C25.3679 21.2082 25.6948 21.3575 25.8692 21.7504C26.1364 22.3543 25.6822 22.9667 24.9694 22.9675C22.0529 22.9675 19.1362 22.9675 16.2191 22.9675H15.8773C15.5999 25.1018 14.6341 26.829 12.9768 28.2407H27.2295C27.9745 28.2407 28.3006 27.9141 28.3006 27.1673V7.61834H27.9501C26.4282 7.61834 24.9058 7.61834 23.3828 7.61834C22.7707 7.61834 22.4092 7.26055 22.4076 6.65746C22.4076 5.68095 22.4076 4.70444 22.4076 3.72793L22.4068 1.75928ZM1.77858 22.0707C1.77469 23.2878 2.13406 24.4787 2.8112 25.4927C3.48835 26.5068 4.45284 27.2983 5.58265 27.7673C6.71246 28.2362 7.9568 28.3615 9.15824 28.1272C10.3597 27.8929 11.4642 27.3096 12.3321 26.4511C13.2 25.5926 13.7922 24.4975 14.0338 23.3043C14.2754 22.1111 14.1556 20.8735 13.6895 19.7481C13.2233 18.6226 12.4319 17.6599 11.4152 16.9817C10.3986 16.3035 9.20239 15.9404 7.97806 15.9382C6.33915 15.9382 4.76691 16.5833 3.60516 17.7325C2.44341 18.8817 1.78668 20.4415 1.77858 22.0707ZM26.9089 5.85047L24.1946 3.15218V5.85047H26.9089Z" fill="#201F1F"/>
<path d="M18.5422 12.4227C16.4126 12.4227 14.2829 12.4227 12.1533 12.4227C11.4516 12.4227 11.0091 11.7789 11.2936 11.1821C11.4602 10.8306 11.7557 10.6665 12.1455 10.6665H15.7674C18.839 10.6665 21.9108 10.6665 24.9829 10.6665C25.6902 10.6665 26.1389 11.2915 25.8638 11.8946C25.691 12.2727 25.3743 12.4258 24.9617 12.425C22.8221 12.4214 20.6823 12.4206 18.5422 12.4227Z" fill="#201F1F"/>
<path d="M6.73974 23.3987C6.98571 23.1378 7.18767 22.9128 7.40142 22.6956C8.32242 21.7759 9.24526 20.8585 10.1699 19.9434C10.577 19.5411 11.1129 19.5224 11.4799 19.8856C11.8469 20.2489 11.8249 20.7824 11.4178 21.1887C10.0892 22.5162 8.75699 23.8409 7.42107 25.1627C6.97392 25.6041 6.47806 25.5955 6.0262 25.1502C5.4824 24.6164 4.94122 24.0781 4.40266 23.5354C3.99638 23.1276 3.97045 22.598 4.33194 22.2339C4.69342 21.8699 5.23408 21.8832 5.64114 22.2831C5.99634 22.6347 6.34132 22.994 6.73974 23.3987Z" fill="#201F1F"/>
</svg>
