<svg width="31" height="22" viewBox="0 0 31 22" fill="none" xmlns="http://www.w3.org/2000/svg">
<path d="M0 19.1443V2.38737C0.0132082 2.37328 0.0240833 2.3572 0.0322194 2.33972C0.438498 0.748397 1.40429 0 3.05377 0H27.1224C27.2309 0 27.3385 0 27.447 0C28.6525 0.0460913 29.6568 0.781208 30.03 1.88506C30.085 2.04989 30.1275 2.21863 30.1762 2.38503V19.142C30.1623 19.1555 30.1509 19.1714 30.1424 19.1888C29.744 20.7755 28.7719 21.5324 27.1232 21.5324H3.05455C2.95632 21.5324 2.85809 21.5364 2.75986 21.5324C1.54732 21.4692 0.684465 20.8919 0.197245 19.7825C0.118989 19.5738 0.053127 19.3607 0 19.1443H0ZM15.1022 19.7747H27.2128C28.0206 19.7747 28.4081 19.3927 28.4081 18.5951V2.95453C28.4081 2.13582 28.0277 1.76006 27.1979 1.76006H2.97754C2.14691 1.75772 1.76814 2.13192 1.76814 2.95453V18.5646C1.76814 19.4044 2.1422 19.7747 2.99247 19.7747H15.1022Z" fill="#201F1F"/>
<path d="M6.96575 12.9158C5.67068 11.337 6.07303 9.38627 7.24629 8.3543C7.84094 7.83427 8.60534 7.54665 9.39732 7.54493C10.1893 7.54321 10.955 7.82749 11.5519 8.34492C12.7307 9.38081 13.1558 11.3182 11.8521 12.9119C12.0517 13.0681 12.2607 13.2095 12.4501 13.3751C13.478 14.272 14.0163 15.4063 14.0737 16.7617C14.1004 17.3866 13.742 17.7632 13.1134 17.7647C10.638 17.771 8.16284 17.771 5.68797 17.7647C5.05301 17.7647 4.6986 17.3624 4.73554 16.7257C4.82669 15.1586 5.51849 13.9274 6.81094 13.0322C6.85887 12.9962 6.90445 12.9611 6.96575 12.9158ZM12.1397 15.9914C11.8254 14.8063 10.5539 13.936 9.27375 13.9993C8.06356 14.0595 6.85101 14.9868 6.68599 15.9914H12.1397ZM9.41756 12.2353C9.71003 12.2324 9.99503 12.1432 10.2365 11.9792C10.478 11.8151 10.6651 11.5836 10.7741 11.3138C10.8832 11.044 10.9092 10.7481 10.849 10.4636C10.7889 10.179 10.6451 9.91864 10.436 9.71536C10.2269 9.51207 9.96181 9.37503 9.67431 9.32157C9.38682 9.2681 9.08984 9.30063 8.82095 9.41503C8.55206 9.52942 8.32335 9.72055 8.16377 9.96421C8.00419 10.2079 7.92091 10.4931 7.92447 10.7839C7.93129 11.1724 8.09182 11.5426 8.3713 11.8143C8.65077 12.086 9.02667 12.2373 9.41756 12.2353Z" fill="#201F1F"/>
<path d="M15.0879 5.52638H5.7765C5.26884 5.52638 4.94822 5.34202 4.7997 4.9725C4.74991 4.84993 4.72893 4.71767 4.73834 4.58581C4.74774 4.45395 4.7873 4.32596 4.85399 4.21159C4.92068 4.09723 5.01275 3.9995 5.12318 3.92586C5.23361 3.85221 5.35949 3.8046 5.49124 3.78663C5.60832 3.77295 5.72622 3.76746 5.84408 3.77022C12.0098 3.77022 18.1755 3.77022 24.3411 3.77022C24.9423 3.77022 25.2786 3.9749 25.4028 4.40847C25.4379 4.52555 25.4475 4.64873 25.4309 4.76978C25.4144 4.89084 25.372 5.00699 25.3067 5.11049C25.2414 5.21399 25.1547 5.30246 25.0523 5.37C24.9499 5.43754 24.8342 5.4826 24.7128 5.50216C24.5867 5.52042 24.4592 5.52774 24.3317 5.52404L15.0879 5.52638Z" fill="#201F1F"/>
<path d="M21.2309 10.2347C20.1701 10.2347 19.1092 10.2347 18.0483 10.2347C17.4573 10.2347 17.044 9.87224 17.0424 9.35742C17.0409 8.84261 17.4456 8.47778 18.0428 8.47778C20.175 8.47778 22.3065 8.47778 24.4372 8.47778C25.0344 8.47778 25.4407 8.8348 25.443 9.35196C25.4454 9.86912 25.0328 10.2332 24.4427 10.2339C23.3718 10.2355 22.3013 10.2358 21.2309 10.2347Z" fill="#201F1F"/>
<path d="M21.2178 13.9954C20.1278 13.9954 19.0371 14.0024 17.9471 13.9954C17.2894 13.9891 16.8682 13.3821 17.1086 12.8017C17.1692 12.634 17.2817 12.4898 17.43 12.3897C17.5783 12.2896 17.7546 12.2388 17.9338 12.2447C20.1341 12.2384 22.3345 12.2384 24.5348 12.2447C24.6532 12.2423 24.7709 12.2634 24.881 12.3069C24.9911 12.3504 25.0913 12.4153 25.1758 12.4978C25.2603 12.5804 25.3274 12.6789 25.373 12.7875C25.4187 12.8962 25.442 13.0128 25.4417 13.1306C25.4354 13.6204 25.0487 13.9946 24.5183 13.9969C23.4181 14.0001 22.318 13.9954 21.2178 13.9954Z" fill="#201F1F"/>
<path d="M20.3068 17.7622C19.521 17.7622 18.7351 17.7755 17.9493 17.7575C17.2931 17.7427 16.8829 17.1732 17.0951 16.5959C17.2303 16.2295 17.5084 16.0154 17.8974 16.0131C19.4958 16.0021 21.0937 16.0021 22.691 16.0131C22.923 16.014 23.1451 16.1065 23.3085 16.2702C23.4718 16.434 23.5631 16.6555 23.5621 16.8861C23.5612 17.1167 23.4682 17.3375 23.3035 17.4999C23.1388 17.6623 22.9159 17.753 22.684 17.7521C21.8903 17.7708 21.095 17.7575 20.3013 17.7575L20.3068 17.7622Z" fill="#201F1F"/>
</svg>
