<svg width="54" height="55" viewBox="0 0 54 55" fill="none" xmlns="http://www.w3.org/2000/svg">
<circle cx="27" cy="27" r="27" fill="#FF0000"/>
<path d="M28.7166 9.72812L28.4195 33.608H24.6033L24.2834 9.72812H28.7166ZM24.1463 40.8748C24.1463 40.1893 24.352 39.6104 24.7633 39.1381C25.1898 38.6658 25.8145 38.4297 26.6371 38.4297C27.4445 38.4297 28.0615 38.6658 28.4881 39.1381C28.9299 39.6104 29.1508 40.1893 29.1508 40.8748C29.1508 41.5299 28.9299 42.0936 28.4881 42.5658C28.0615 43.0381 27.4445 43.2742 26.6371 43.2742C25.8145 43.2742 25.1898 43.0381 24.7633 42.5658C24.352 42.0936 24.1463 41.5299 24.1463 40.8748Z" fill="white"/>
</svg>
