<svg width="25" height="26" viewBox="0 0 25 26" fill="none" xmlns="http://www.w3.org/2000/svg">
<path d="M2.39824 0.0728188C1.27533 0.316708 0.315023 1.28718 0.0762152 2.41517C0.010162 2.71495 0 4.10206 0 11.9167C0 20.8643 0 21.0777 0.10162 21.4588C0.243889 22.0279 0.472534 22.4242 0.914583 22.8663C1.21436 23.1711 1.38712 23.2981 1.72755 23.4607C1.96635 23.5725 2.28138 23.6894 2.42873 23.7199C2.61164 23.7554 4.18168 23.7758 7.31158 23.7758H11.9302L11.6406 23.2016C10.7057 21.3623 10.538 19.1876 11.1833 17.2467C11.9709 14.8789 13.861 12.9989 16.2084 12.252C17.0976 11.9726 17.4685 11.9167 18.5051 11.9116H19.4603V7.359C19.4603 4.44249 19.44 2.70987 19.4095 2.52695C19.2367 1.59204 18.5965 0.743513 17.7531 0.32687C17.057 -0.0186386 17.4279 -0.00339699 9.70474 0.00168419C3.97843 0.00168419 2.66245 0.0169277 2.39824 0.0728188ZM8.8308 5.12843C9.08994 5.28594 9.2068 5.51459 9.18139 5.81945C9.16107 6.10398 9.04929 6.2869 8.81556 6.43425C8.67329 6.52063 8.50054 6.52571 6.17343 6.52571C3.84633 6.52571 3.67357 6.52063 3.53131 6.43425C3.29758 6.2869 3.1858 6.10398 3.16547 5.81945C3.14007 5.51459 3.25693 5.28594 3.51606 5.12843C3.67865 5.03189 3.78028 5.02681 6.17343 5.02681C8.56659 5.02681 8.66821 5.03189 8.8308 5.12843ZM15.9442 5.12843C16.432 5.42313 16.4269 6.05826 15.9391 6.41901C15.7969 6.52571 15.7511 6.52571 13.297 6.52571H10.7972L10.6142 6.40885C10.1417 6.11923 10.1519 5.41805 10.6295 5.12843C10.7921 5.03189 10.8937 5.02681 13.2869 5.02681C15.68 5.02681 15.7816 5.03189 15.9442 5.12843ZM8.8308 8.17704C9.08994 8.33455 9.2068 8.5632 9.18139 8.86806C9.16107 9.15259 9.04929 9.33551 8.81556 9.48286C8.67329 9.56924 8.50054 9.57432 6.17343 9.57432C3.84633 9.57432 3.67357 9.56924 3.53131 9.48286C3.29758 9.33551 3.1858 9.15259 3.16547 8.86806C3.14007 8.5632 3.25693 8.33455 3.51606 8.17704C3.67865 8.0805 3.78028 8.07542 6.17343 8.07542C8.56659 8.07542 8.66821 8.0805 8.8308 8.17704ZM15.9442 8.17704C16.432 8.47174 16.4269 9.10686 15.9391 9.46762C15.7969 9.57432 15.7511 9.57432 13.297 9.57432H10.7972L10.6142 9.45745C10.1417 9.16784 10.1519 8.46666 10.6295 8.17704C10.7921 8.0805 10.8937 8.07542 13.2869 8.07542C15.68 8.07542 15.7816 8.0805 15.9442 8.17704ZM8.8308 11.2256C9.08994 11.3832 9.2068 11.6118 9.18139 11.9167C9.16107 12.2012 9.04929 12.3841 8.81556 12.5315C8.67329 12.6178 8.50054 12.6229 6.17343 12.6229C3.84633 12.6229 3.67357 12.6178 3.53131 12.5315C3.29758 12.3841 3.1858 12.2012 3.16547 11.9167C3.14007 11.6118 3.25693 11.3832 3.51606 11.2256C3.67865 11.1291 3.78028 11.124 6.17343 11.124C8.56659 11.124 8.66821 11.1291 8.8308 11.2256ZM13.607 11.2256C13.8305 11.3628 13.9931 11.7236 13.9474 11.9827C13.8966 12.2419 13.7035 12.4756 13.4494 12.5721C13.2614 12.6433 13.048 12.6534 12.0115 12.6382C10.853 12.6229 10.787 12.6178 10.6142 12.5061C10.1417 12.2164 10.1519 11.5153 10.6295 11.2256C10.787 11.1291 10.8886 11.124 12.1182 11.124C13.3529 11.124 13.4494 11.1291 13.607 11.2256ZM8.8308 14.2743C9.30842 14.5639 9.31858 15.2651 8.84605 15.5547L8.66313 15.6715H6.17343C3.84633 15.6715 3.67357 15.6665 3.53131 15.5801C3.29758 15.4327 3.1858 15.2498 3.16547 14.9653C3.14007 14.6604 3.25693 14.4318 3.51606 14.2743C3.67865 14.1777 3.78028 14.1726 6.17343 14.1726C8.56659 14.1726 8.66821 14.1777 8.8308 14.2743ZM8.8308 17.3737C9.30842 17.6633 9.31858 18.3645 8.84605 18.6541L8.66313 18.771H6.17343C3.84633 18.771 3.67357 18.7659 3.53131 18.6795C3.29758 18.5321 3.1858 18.3492 3.16547 18.0647C3.14007 17.7598 3.25693 17.5312 3.51606 17.3737C3.67865 17.2771 3.78028 17.2721 6.17343 17.2721C8.56659 17.2721 8.66821 17.2771 8.8308 17.3737Z" fill="#FFBB38"/>
<path d="M17.5041 13.441C16.2186 13.6697 15.0856 14.2641 14.1456 15.2092C12.8956 16.4591 12.2859 17.9326 12.2859 19.6856C12.2808 21.4639 12.9769 23.0797 14.2675 24.289C16.9605 26.8244 21.2996 26.4992 23.5505 23.598C24.4956 22.3785 24.9072 21.1794 24.9021 19.6297C24.9021 17.9174 24.2822 16.4439 23.0475 15.2092C22.0669 14.2286 20.9948 13.6697 19.6432 13.4359C19.0894 13.3394 18.0529 13.3445 17.5041 13.441ZM21.2234 17.643C21.3809 17.7954 21.4114 17.8666 21.4317 18.1003C21.447 18.2731 21.4267 18.4204 21.386 18.5017C21.3454 18.5728 20.756 19.3299 20.07 20.1835C19.2418 21.22 18.7642 21.7739 18.6423 21.8399C18.4238 21.9669 18.1697 21.9771 17.9716 21.8704C17.7175 21.7383 15.9138 20.402 15.8477 20.2953C15.5886 19.8787 15.7715 19.3502 16.2339 19.1724C16.5641 19.0504 16.7216 19.1114 17.4787 19.6602C17.8293 19.9091 18.1291 20.1175 18.1443 20.1175C18.1596 20.1175 18.6016 19.5738 19.13 18.9133C19.6585 18.2527 20.1412 17.6684 20.1971 17.6125C20.3546 17.4601 20.4816 17.4245 20.7712 17.4398C21.0049 17.455 21.071 17.4855 21.2234 17.643Z" fill="#FFBB38"/>
</svg>
