<svg width="31" height="30" viewBox="0 0 31 30" fill="none" xmlns="http://www.w3.org/2000/svg">
<path d="M2.11848 0.0644646C1.11052 0.263712 0.254921 1.13103 0.0615325 2.16243C-0.0205109 2.59609 -0.0205109 27.4084 0.0615325 27.842C0.260781 28.9027 1.11638 29.7525 2.17708 29.9458C2.39391 29.9869 5.58774 29.9986 11.6414 29.9927L20.7775 29.9751L21.1174 29.8404C21.803 29.5591 22.4125 28.9496 22.6938 28.2581L22.8286 27.9241L22.8462 24.3903C22.8579 22.4506 22.8462 20.8625 22.8227 20.8625C22.7993 20.8625 22.4887 21.1438 22.1312 21.4954C21.6682 21.9408 21.3635 22.181 21.0705 22.3334C20.8478 22.4506 19.9629 22.7788 19.1073 23.0601C17.613 23.5523 17.5426 23.5699 17.1559 23.5406C16.3706 23.4761 15.6674 22.9956 15.3216 22.2865C15.1985 22.0345 15.1517 21.847 15.1341 21.4778C15.1106 21.0031 15.1106 20.9855 15.6498 19.374C16.101 18.0144 16.2358 17.6804 16.4702 17.3287C16.6753 17.024 17.5954 16.0629 19.8047 13.8595L22.8579 10.8121V8.92515V7.03229H19.6933C16.2065 7.03229 16.2534 7.03815 15.9955 6.67482L15.8549 6.47557L15.8373 3.23486L15.8256 1.90735e-06L9.09803 0.00586128C5.40021 0.0117207 2.25912 0.035162 2.11848 0.0644646ZM17.0562 8.89585C17.6833 9.20644 17.6833 10.1324 17.0562 10.443C16.8628 10.5426 16.4292 10.5484 10.5338 10.5484C4.32193 10.5484 4.21644 10.5484 3.9879 10.4312C3.72418 10.2964 3.51908 9.96241 3.51908 9.6694C3.51908 9.38811 3.72418 9.04235 3.97617 8.91343C4.18714 8.79622 4.33365 8.79622 10.5221 8.79037C16.4351 8.79037 16.8628 8.79622 17.0562 8.89585ZM13.5401 12.412C14.1671 12.7226 14.1671 13.6485 13.5401 13.9591C13.3526 14.0587 13.0009 14.0646 8.77571 14.0646C4.32193 14.0646 4.21058 14.0646 3.9879 13.9474C3.72418 13.8126 3.51908 13.4786 3.51908 13.1855C3.51908 12.9043 3.72418 12.5585 3.97617 12.4296C4.18714 12.3124 4.32779 12.3124 8.76399 12.3065C13.0009 12.3065 13.3526 12.3124 13.5401 12.412ZM13.5401 15.9281C14.1671 16.2387 14.1671 17.1647 13.5401 17.4752C13.3526 17.5749 13.0009 17.5807 8.77571 17.5807C4.32193 17.5807 4.21058 17.5807 3.9879 17.4635C3.72418 17.3287 3.51908 16.9947 3.51908 16.7017C3.51908 16.4204 3.72418 16.0746 3.97617 15.9457C4.18714 15.8285 4.32779 15.8285 8.76399 15.8227C13.0009 15.8227 13.3526 15.8285 13.5401 15.9281ZM13.5401 19.4443C14.1671 19.7549 14.1671 20.6808 13.5401 20.9914C13.3526 21.091 13.0009 21.0969 8.77571 21.0969C4.32193 21.0969 4.21058 21.0969 3.9879 20.9797C3.72418 20.8449 3.51908 20.5109 3.51908 20.2178C3.51908 19.9365 3.72418 19.5908 3.97617 19.4619C4.18714 19.3447 4.32779 19.3447 8.76399 19.3388C13.0009 19.3388 13.3526 19.3447 13.5401 19.4443ZM17.0562 24.7185C17.6833 25.0291 17.6833 25.955 17.0562 26.2656C16.8687 26.3594 16.5991 26.3711 14.0382 26.3711C10.903 26.3711 10.9616 26.377 10.6862 25.9667C10.4049 25.5507 10.5689 24.9412 11.0202 24.7185C11.2077 24.6247 11.4773 24.613 14.0382 24.613C16.5991 24.613 16.8687 24.6247 17.0562 24.7185Z" fill="white"/>
<path d="M17.525 2.63706V5.27417H20.1856H22.8403L22.8168 4.96358C22.7817 4.55336 22.5941 3.99078 22.389 3.68018C22.2953 3.5454 21.551 2.76599 20.7364 1.95141C19.4413 0.668019 19.2011 0.45119 18.8729 0.298824C18.492 0.123016 18.0173 -4.86374e-05 17.695 -4.86374e-05H17.525V2.63706Z" fill="white"/>
<path d="M27.6808 8.75525C27.3409 8.86659 26.9717 9.14788 26.2861 9.83939L25.7001 10.4313L26.9307 11.6619C27.6047 12.3417 28.1907 12.8926 28.2258 12.8926C28.3548 12.8926 29.685 11.4627 29.8257 11.1697C30.4938 9.80423 29.1518 8.29815 27.6808 8.75525Z" fill="white"/>
<path d="M21.5394 14.5922L18.6678 17.4637L19.8985 18.6944C20.5724 19.3683 21.1526 19.925 21.1878 19.925C21.2229 19.925 22.5415 18.6358 24.1179 17.0535L26.9894 14.182L25.7587 12.9514C25.0848 12.2774 24.5046 11.7207 24.4695 11.7207C24.4343 11.7207 23.1158 13.01 21.5394 14.5922Z" fill="white"/>
<path d="M17.2672 20.0889C17.0504 20.7393 16.8805 21.3371 16.8922 21.425C16.9039 21.5129 16.9801 21.636 17.0738 21.7063L17.2379 21.8235L18.4627 21.4191C19.1425 21.1964 19.6934 20.9972 19.6934 20.9796C19.6934 20.962 19.2363 20.4932 18.6737 19.9306L17.654 18.9168L17.2672 20.0889Z" fill="white"/>
</svg>
