<svg width="30" height="26" viewBox="0 0 30 26" fill="none" xmlns="http://www.w3.org/2000/svg">
<path d="M13.876 0.0630989C13.3634 0.1495 12.6894 0.391422 12.1825 0.673664C11.5317 1.03655 10.6504 1.91207 10.299 2.53416C9.14124 4.5905 9.46956 7.07308 11.1227 8.72045C12.1019 9.70542 13.323 10.2065 14.717 10.2065C16.1109 10.2065 17.332 9.70542 18.3112 8.72045C19.9644 7.07308 20.2927 4.5905 19.1349 2.53416C18.7836 1.91207 17.9023 1.03655 17.2514 0.673664C16.2261 0.103419 14.9877 -0.121222 13.876 0.0630989Z" fill="white"/>
<path d="M4.76353 4.89588C3.6288 5.1954 2.64959 6.05365 2.20031 7.1423C1.98719 7.6607 1.92383 8.0063 1.92383 8.61687C1.92383 9.23319 2.03327 9.7228 2.30399 10.2815C2.77632 11.2607 3.73248 12.0326 4.80961 12.3033C5.29922 12.43 6.16322 12.4243 6.65283 12.2975C7.50531 12.0787 8.40388 11.4451 8.89349 10.7193C9.67109 9.56728 9.74597 8.04086 9.08933 6.77941C8.79557 6.21493 8.0986 5.51796 7.53411 5.2242C6.69315 4.78644 5.65634 4.66547 4.76353 4.89588Z" fill="white"/>
<path d="M22.7349 4.89588C21.7614 5.15508 20.7995 5.90965 20.3445 6.77941C19.8203 7.78742 19.7512 8.96823 20.1659 10.0108C20.6037 11.0994 21.6289 11.998 22.781 12.2975C23.2706 12.4243 24.1346 12.43 24.6242 12.3033C25.9835 11.9577 27.0664 10.8748 27.4178 9.50968C27.5272 9.08919 27.5445 8.23094 27.4524 7.8047C27.1471 6.40501 26.0296 5.24724 24.6472 4.89588C24.0712 4.74612 23.3051 4.74612 22.7349 4.89588Z" fill="white"/>
<path d="M11.2321 11.3759C10.3566 11.5717 9.78059 11.8943 9.12394 12.551C8.57674 13.0982 8.28297 13.5647 8.04105 14.2732L7.89129 14.7167L7.87401 19.5552C7.86249 24.313 7.86249 24.3994 7.97769 24.5837C8.04105 24.6874 8.17353 24.8199 8.27721 24.8832C8.46154 24.9984 8.5825 24.9984 14.7169 24.9984C20.8514 24.9984 20.9724 24.9984 21.1567 24.8832C21.2604 24.8199 21.3928 24.6874 21.4562 24.5837C21.5714 24.3994 21.5714 24.313 21.5599 19.5552L21.5426 14.7167L21.3928 14.2732C21.1509 13.5647 20.8572 13.0982 20.31 12.551C19.7627 12.0037 19.2962 11.71 18.5877 11.4681L18.1442 11.3183L14.8609 11.3068C12.2632 11.301 11.5028 11.3125 11.2321 11.3759Z" fill="white"/>
<path d="M3.66915 13.5417C2.01602 13.7548 0.656645 14.9298 0.132481 16.5887C0 17.0207 0 17.0322 0 20.0159V23.0112L0.132481 23.3395C0.403203 24.0134 0.961928 24.5664 1.63009 24.8371C1.9469 24.9638 2.01602 24.9696 4.12995 24.9869L6.30149 25.0042L6.23237 24.8141C6.14597 24.5606 6.09989 15.7593 6.18629 14.9759C6.22085 14.6764 6.28997 14.2732 6.34181 14.0831C6.39365 13.893 6.45125 13.6799 6.46277 13.605L6.49157 13.4783L5.26468 13.4841C4.585 13.4898 3.86499 13.5129 3.66915 13.5417Z" fill="white"/>
<path d="M22.9711 13.605C22.9826 13.6799 23.0402 13.893 23.092 14.0831C23.1439 14.2732 23.213 14.6764 23.2475 14.9759C23.3339 15.7593 23.2879 24.5606 23.2015 24.8141L23.1323 25.0042L25.3039 24.9869C27.4178 24.9696 27.4869 24.9638 27.8037 24.8371C28.4719 24.5664 29.0306 24.0134 29.3014 23.3395L29.4338 23.0112V20.0159C29.4338 17.0265 29.4338 17.0207 29.2956 16.5887C28.8636 15.2063 27.8901 14.181 26.5826 13.7375C26.0008 13.5417 25.4133 13.4783 24.0885 13.4783H22.9423L22.9711 13.605Z" fill="white"/>
</svg>
