<svg width="61" height="71" viewBox="0 0 61 71" fill="none" xmlns="http://www.w3.org/2000/svg">
<path fill-rule="evenodd" clip-rule="evenodd" d="M35.1027 0.00280669C34.3095 0.0372946 33.3553 0.353434 32.8437 1.47429C30.9283 5.68731 30.9817 13.3363 31.7262 18.7336C32.1706 18.694 36.6711 18.363 41.3099 20.2564C42.971 17.6834 45.6745 14.6354 46.4208 15.3959C47.1179 16.1785 46.0131 19.5305 44.8082 22.1716C46.0549 23.0629 47.2345 24.1784 48.2613 25.573C49.004 24.6647 49.9204 23.6443 51.1396 22.6269C52.8588 21.2979 54.8177 20.9601 56.5467 20.662C57.1358 20.5604 57.6982 20.4635 58.2154 20.3335C59.7788 19.9024 60.5031 18.9022 60.3709 17.3387C60.003 15.8615 59.158 14.7522 57.813 14.0164C56.514 13.4014 55.2781 12.6771 54.0998 11.8494C53.4158 10.832 53.1974 9.71116 53.4503 8.48684C53.5997 7.00386 53.1226 5.77379 52.0363 4.78514C50.8522 4.10112 49.6049 3.79073 48.2828 3.85396L47.7598 3.89995L47.6965 3.90569C47.1177 3.93449 46.536 4.01234 45.955 4.09009C45.3764 4.16753 44.7984 4.24488 44.2248 4.27356C43.4085 4.3138 42.6038 4.25632 41.7934 3.96892C40.6208 3.4516 39.6091 2.71586 38.7642 1.76169C37.5743 0.778786 36.3098 -0.0546732 35.1027 0.00280669ZM44.1004 27.7262C41.502 24.6955 37.6833 23.7147 35.0594 23.4147C39.4302 24.7177 42.5087 26.5505 44.1004 27.7262Z" fill="white"/>
<path fill-rule="evenodd" clip-rule="evenodd" d="M15.4159 68.8695C25.1932 70.8008 38.8792 70.9733 48.7255 68.5476C54.6746 67.0819 61.2159 62.1386 60.5491 55.2238C59.9858 49.424 56.9164 45.1935 52.7031 42.0034C52.0478 41.5091 51.7776 40.8365 51.7662 40.1698C51.7202 39.9858 51.7087 39.7962 51.6972 39.5835C51.5477 36.9279 48.3633 31.519 46.6964 29.0819C39.9943 19.2873 27.274 21.3911 17.7955 25.7078C8.00095 30.1683 0.879187 40.2905 0.0629718 51.0392C-0.741747 61.6615 6.26505 67.0589 15.4159 68.8695ZM34.5162 44.9004C36.597 46.711 38.7985 48.8205 39.9941 50.7633C41.8334 54.0109 41.3851 57.1493 38.7755 59.3853C36.0739 61.696 32.5791 62.3225 28.6015 61.2419L27.9865 62.9433C27.8773 63.2422 27.5439 63.3974 27.245 63.2882L22.888 61.7075C22.5891 61.5983 22.4397 61.2706 22.5431 60.9717L23.2846 58.9312C22.296 58.3392 21.4913 57.7759 20.9567 57.3735C18.7207 55.6836 16.6227 53.5224 15.3409 51.591C15.2719 51.4876 15.249 51.3611 15.2719 51.2404C15.3007 51.1139 15.3754 51.0047 15.4789 50.9415L19.7439 48.217C19.8434 48.1547 19.9628 48.1325 20.0781 48.1549C20.1933 48.1773 20.2957 48.2426 20.3647 48.3377C20.7325 48.8492 22.8938 51.1887 25.4746 52.8786L27.4404 47.441C27.1905 47.2271 26.9382 47.0132 26.6878 46.8009C26.3796 46.5396 26.0742 46.2807 25.7793 46.027L25.4861 45.7683C23.1869 43.7623 21.3706 42.1758 20.7498 39.8594C20.1405 37.6866 21.0027 35.2897 23.003 33.6113C25.5551 31.4788 28.8085 31.0707 32.9068 32.341L33.6138 30.3809C33.723 30.082 34.0564 29.9269 34.3553 30.0361L38.7065 31.611C39.0111 31.726 39.1606 32.0536 39.0514 32.3525L38.103 34.9736C40.7068 36.7382 43.0865 38.8822 44.1843 40.1065C44.2285 40.1541 44.262 40.2104 44.2828 40.2718C44.3036 40.3332 44.3112 40.3984 44.305 40.4629C44.2878 40.5951 44.2246 40.7101 44.1211 40.7906L40.4194 43.5438C40.2355 43.6761 39.9826 43.6646 39.8216 43.5094C38.833 42.6012 37.5684 41.5493 36.1314 40.4284L34.5162 44.9004ZM29.7856 40.9917L30.9755 37.6981C30.027 37.5314 28.9407 37.5947 28.5038 38.5488C28.0842 39.48 28.6763 40.1295 29.7856 40.9917ZM33.5103 53.4879C33.4586 52.8613 32.9183 52.1773 32.1538 51.4358L30.7973 55.1835C31.6882 55.2927 32.5504 55.172 33.0907 54.5455C33.4011 54.1891 33.5333 53.8442 33.5103 53.4879Z" fill="white"/>
</svg>
