<svg width="26" height="25" viewBox="0 0 26 25" fill="none" xmlns="http://www.w3.org/2000/svg">
<path d="M1.56435 0.0652008C0.845783 0.265617 0.259197 0.857092 0.0685562 1.58055C0.0147858 1.78585 0.000121195 3.45762 0.000121195 11.4596C0.000121195 22.0035 -0.0145435 21.3876 0.27875 21.896C0.459614 22.1991 0.821342 22.551 1.10486 22.6928C1.23684 22.7563 2.81573 23.3038 4.61949 23.905L7.89459 25H8.33453C8.87224 25 9.1753 24.9022 9.58103 24.6041C9.90854 24.3645 10.1725 24.0028 10.3143 23.5922C10.3925 23.3673 10.412 23.1914 10.412 22.6048V21.896H12.1376C14.1026 21.896 14.2982 21.8715 14.9581 21.5489C15.75 21.1627 16.3903 20.3562 16.5907 19.5008C16.7032 19.0266 16.7032 14.4512 16.5956 14.1824C16.2681 13.4003 15.134 13.3514 14.7234 14.0993C14.6501 14.2264 14.6354 14.5343 14.6159 16.6411L14.5914 19.0364L14.4692 19.2563C14.4008 19.3737 14.2493 19.5399 14.1368 19.623L13.9218 19.7696L12.1669 19.7843L10.412 19.7989L10.4022 11.7187L10.3876 3.63849L10.2312 3.31098C9.97697 2.77327 9.6348 2.45554 9.04821 2.21113L8.77447 2.0987L11.3506 2.11336L13.9218 2.12314L14.1368 2.26979C14.2493 2.35289 14.4008 2.51909 14.4692 2.6364L14.5914 2.85637L14.6159 4.73834C14.6403 6.5812 14.6403 6.62519 14.7479 6.79628C14.8114 6.89404 14.9532 7.0358 15.0656 7.11401C15.2465 7.2411 15.31 7.25577 15.6424 7.25577C15.9699 7.25577 16.0384 7.2411 16.2094 7.12379C16.3121 7.05046 16.4539 6.9087 16.5223 6.80605L16.6445 6.62519L16.6592 4.68457C16.6738 2.49464 16.6592 2.36266 16.3365 1.70764C16.0726 1.16994 15.5153 0.617569 14.9581 0.343828C14.2151 -0.0178986 14.567 -0.00323486 7.82127 0.00165367C3.14324 0.00654221 1.73544 0.0212059 1.56435 0.0652008Z" fill="#FFBB38"/>
<path d="M19.3818 5.31989C19.1325 5.43232 18.8881 5.70606 18.8246 5.94558C18.7904 6.05801 18.7708 6.77169 18.7708 7.75422V9.382H16.5809H14.391L14.1319 9.50909C13.6919 9.72906 13.4769 10.1934 13.5942 10.6725C13.6724 11 14.0097 11.3471 14.3323 11.4253C14.4887 11.4644 15.2171 11.4839 16.664 11.4839H18.7708V13.1019C18.7708 14.2458 18.7904 14.7835 18.8295 14.9252C18.9517 15.3212 19.4063 15.6389 19.8511 15.6389C20.2422 15.634 20.3741 15.5216 22.6227 13.2779C24.8762 11.0293 25.0277 10.8485 25.0277 10.4672C25.0277 10.0028 25.0571 10.037 22.6863 7.65646C21.2149 6.1851 20.3888 5.38832 20.2568 5.32478C20.0075 5.20257 19.6409 5.20257 19.3818 5.31989Z" fill="#FFBB38"/>
</svg>
