<svg width="25" height="31" viewBox="0 0 25 31" fill="none" xmlns="http://www.w3.org/2000/svg">
<path d="M11.5764 0.349222C10.6264 0.644278 10.2162 1.1984 10.1371 2.30666C10.1083 2.74564 10.0507 3.06948 9.97874 3.17743C9.89958 3.29257 9.63331 3.42931 9.12236 3.62361C6.36611 4.63112 4.567 6.38705 3.86174 8.7403C3.71781 9.21526 3.70342 9.47433 3.65305 13.2381C3.59547 17.5488 3.58108 17.7215 3.18528 18.4987C2.9406 18.9953 2.5304 19.4198 1.7172 20.0387C0.465014 20.9887 0.0620122 21.5932 0.00444054 22.5935C-0.00995238 22.8885 0.011637 23.2699 0.0548158 23.4355C0.191549 23.932 0.558568 24.407 0.997552 24.6445L1.39336 24.8604H12.188C24.127 24.8604 23.2922 24.8963 23.8535 24.3782C24.2925 23.9752 24.4868 23.4858 24.4868 22.7734C24.4796 21.6579 24.0766 21.0175 22.7597 20.0315C21.8889 19.3767 21.4859 18.9233 21.2124 18.3188C20.903 17.6135 20.867 17.0882 20.8598 13.418C20.8598 11.3958 20.831 9.76939 20.7806 9.49592C20.356 6.83323 18.3194 4.65271 15.2609 3.58763C14.4549 3.31416 14.4046 3.235 14.3398 2.32105C14.2678 1.22719 13.8648 0.651474 12.9941 0.392401C12.6126 0.277258 11.8858 0.255669 11.5764 0.349222Z" fill="white"/>
<path d="M7.97803 26.9617C7.98522 27.2208 8.18672 28.07 8.32346 28.365C8.68328 29.1638 9.4533 29.9123 10.3888 30.3656C11.1229 30.7183 11.6842 30.8262 12.5334 30.7758C13.3466 30.7327 13.9223 30.5384 14.6204 30.085C15.7358 29.3509 16.4699 28.1779 16.4699 27.1128V26.8394H12.2239C8.2299 26.8394 7.97803 26.8466 7.97803 26.9617Z" fill="white"/>
</svg>
