<svg width="35" height="34" viewBox="0 0 35 34" fill="none" xmlns="http://www.w3.org/2000/svg">
<path d="M6.77329 0.863365V1.72009L3.93747 1.74001L1.095 1.75994L0.789503 1.93925C0.450798 2.13849 0.178506 2.49712 0.0722453 2.88895C-0.0207325 3.24094 -0.0273738 7.79021 0.0722453 8.46762C0.30469 10.1611 1.04187 11.6754 2.21074 12.8442C3.33975 13.9799 4.58831 14.6639 6.16229 15.0093C6.46779 15.0757 6.73344 15.1487 6.74673 15.162C6.76665 15.182 6.8065 15.5738 6.84634 16.0387C6.99245 17.9846 7.61673 19.7312 8.71918 21.2986C9.25049 22.049 10.3596 23.1648 11.1233 23.6961C11.907 24.2539 13.0626 24.8184 13.999 25.104C14.4041 25.2302 14.7428 25.363 14.7428 25.4029C14.7428 25.4361 14.4838 26.2397 14.1717 27.1761L13.6072 28.8829L11.4687 28.9028L9.32354 28.9227L8.99812 29.0954C8.44689 29.3744 8.33399 29.5935 7.55032 31.8515C7.15848 32.9806 6.8397 33.9236 6.8397 33.9502C6.8397 34.0166 27.162 34.0166 27.162 33.9502C27.162 33.9236 26.8432 32.9806 26.4514 31.8515C25.6677 29.5935 25.5548 29.3744 25.0036 29.0954L24.6782 28.9227L22.533 28.9028L20.3945 28.8829L19.83 27.1761C19.5179 26.2397 19.2589 25.4361 19.2589 25.4029C19.2589 25.363 19.5976 25.2302 20.0093 25.104C20.9391 24.8184 22.0947 24.2539 22.8784 23.6961C23.6421 23.1648 24.7512 22.049 25.2825 21.2986C26.385 19.7312 27.0093 17.9846 27.1554 16.0387C27.1952 15.5738 27.2351 15.182 27.255 15.162C27.2683 15.1487 27.5339 15.0757 27.8394 15.0093C28.6164 14.8432 29.2806 14.5975 29.9381 14.2389C30.7084 13.8205 31.1468 13.4951 31.791 12.8442C32.9598 11.6754 33.697 10.1611 33.9295 8.46762C34.0291 7.79021 34.0224 3.24094 33.9295 2.88895C33.8232 2.49712 33.5509 2.13849 33.2122 1.93925L32.9067 1.75994L30.0709 1.74001L27.2284 1.72009V0.863365V0H17.0009H6.77329V0.863365ZM6.77329 8.40785V11.7019L6.59398 11.6554C6.24199 11.5757 5.47824 11.1507 5.04656 10.8054C4.36251 10.2475 3.87105 9.51694 3.56556 8.60045C3.45265 8.26175 3.42609 7.96953 3.40617 6.65456L3.37296 5.11378H5.07312H6.77329V8.40785ZM30.6022 6.65456C30.5756 8.11564 30.5623 8.23518 30.3963 8.73327C30.0045 9.90878 29.2142 10.8585 28.218 11.3499C27.9125 11.5027 27.5605 11.6422 27.4476 11.6621L27.2284 11.7019V8.40785V5.11378H28.9286H30.6287L30.6022 6.65456ZM17.2665 7.3851C17.386 7.65075 17.7181 8.40121 18.0103 9.04542L18.5416 10.2276L20.3016 10.2408L22.0549 10.2608L20.8262 11.9012C20.1488 12.8044 19.591 13.5947 19.591 13.6478C19.591 13.7076 19.7703 14.4713 19.9894 15.3546C20.2152 16.2313 20.3813 16.9618 20.3746 16.9685C20.3613 16.9751 19.5976 16.5633 18.6811 16.0586L17.0009 15.1288L15.3273 16.0586C14.4041 16.5633 13.6404 16.9751 13.6271 16.9685C13.6204 16.9618 13.7865 16.2313 14.0123 15.3546C14.2314 14.4713 14.4108 13.7076 14.4108 13.6478C14.4108 13.5947 13.8529 12.8044 13.1755 11.9012L11.9468 10.2608L13.7001 10.2408L15.4601 10.2276L15.9914 9.04542C16.2836 8.40121 16.6157 7.65075 16.7352 7.3851C16.8547 7.12609 16.9743 6.90693 17.0009 6.90693C17.0274 6.90693 17.147 7.12609 17.2665 7.3851Z" fill="white"/>
</svg>
