<svg width="27" height="27" viewBox="0 0 27 27" fill="none" xmlns="http://www.w3.org/2000/svg">
<path d="M1.63692 0.085885C0.979575 0.259889 0.470454 0.69812 0.167559 1.34902L0 1.70347V5.50577V9.30807L0.167559 9.66252C0.496232 10.3585 1.06335 10.8161 1.78515 10.9579L2.15893 11.0352L2.17182 12.6657L2.19115 14.3026L4.9301 12.6592L7.66904 11.0159H8.80973H9.95042L10.3371 10.4552C11.2973 9.05029 12.5927 7.98693 14.1458 7.32314C15.3639 6.80757 16.4272 6.60779 17.8064 6.64646L18.6635 6.66579L18.6441 4.12019C18.6248 1.58103 18.6248 1.57458 18.4701 1.28458C18.1479 0.672341 17.7355 0.31789 17.1168 0.124553C16.7172 -0.00433826 16.5497 -0.00433826 9.31885 0.00210571C3.67985 0.00210571 1.86248 0.0214396 1.63692 0.085885ZM6.15457 4.63575C6.55413 4.91931 6.68302 5.64755 6.41879 6.07934C6.12234 6.55624 5.49722 6.72379 4.97521 6.4789C4.3372 6.16956 4.19542 5.26088 4.71743 4.74531C5.08477 4.37153 5.71634 4.32641 6.15457 4.63575ZM9.95042 4.62286C10.2469 4.84198 10.408 5.14487 10.408 5.48644C10.408 6.67224 8.82262 7.03313 8.33928 5.96334C8.19105 5.62822 8.19105 5.38332 8.33928 5.04821C8.61639 4.44886 9.42197 4.22975 9.95042 4.62286ZM13.7076 4.54553C13.9461 4.66798 14.2103 5.02887 14.2554 5.30599C14.3778 6.08578 13.6625 6.76891 12.9214 6.56913C12.3736 6.4209 12.0385 5.93111 12.1029 5.37043C12.1867 4.61642 13.0051 4.19752 13.7076 4.54553Z" fill="#FFBB38"/>
<path d="M16.917 8.28343C15.7892 8.44454 15.1705 8.62499 14.3714 9.031C12.1029 10.1717 10.698 12.2855 10.4402 14.96L10.4016 15.3853L10.1631 15.4305C9.67976 15.5207 9.18353 15.8816 8.93863 16.3263C8.84197 16.5067 8.82908 16.8418 8.80974 19.6517C8.79685 21.9266 8.80974 22.8546 8.86774 23.0544C8.97086 23.4346 9.42842 23.9309 9.8151 24.0791C10.0858 24.1822 10.3371 24.1951 12.0385 24.1951H13.9654L14.1265 24.0082L14.2812 23.8213L14.2619 21.4304C14.2361 19.0459 14.2361 19.0394 14.0621 18.4723C13.9654 18.163 13.6109 17.3509 13.2694 16.6678C12.6765 15.4949 12.6443 15.4111 12.6572 15.0567C12.6894 14.1802 13.1534 12.9944 13.7463 12.2791C15.0739 10.6808 17.1877 10.075 19.1533 10.7259C20.99 11.3382 22.324 13.0202 22.498 14.9471L22.5367 15.366L21.86 16.7323C20.8998 18.6785 20.8933 18.685 20.8611 21.5657L20.8353 23.8342L20.3133 24.0855C19.2757 24.5882 18.5797 24.7429 17.2908 24.7429H16.4659V25.5807V26.4185H17.1619C18.077 26.4185 18.8762 26.3218 19.6173 26.122C20.6549 25.8513 21.8793 25.2004 22.6334 24.5238L22.9491 24.2402L24.0383 24.2144C25.0758 24.1951 25.1532 24.1822 25.4625 24.0146C25.875 23.802 26.1714 23.454 26.2939 23.0415C26.4292 22.5839 26.4356 17.048 26.3003 16.6034C26.1263 16.0169 25.6687 15.5916 25.0758 15.4562L24.7343 15.3789L24.6956 14.8247C24.6118 13.6582 24.0447 12.1244 23.368 11.2093C22.4142 9.9268 21.0544 8.97944 19.5593 8.54766C18.7344 8.30921 17.5679 8.19321 16.917 8.28343Z" fill="#FFBB38"/>
</svg>
