<svg width="19" height="25" viewBox="0 0 19 25" fill="none" xmlns="http://www.w3.org/2000/svg">
<path d="M8.21361 0.0697165C7.17752 0.255284 6.23937 0.760444 5.51256 1.52849C3.66203 3.4615 3.67234 6.45637 5.53833 8.38422C6.40947 9.29144 7.56412 9.80691 8.84248 9.87392C11.1879 9.99248 13.2394 8.46669 13.8786 6.13162C14.0384 5.56461 14.0384 4.31717 13.8786 3.75016C13.3477 1.80684 11.8322 0.404771 9.91465 0.0697165C9.38888 -0.0230684 8.71877 -0.0230684 8.21361 0.0697165Z" fill="white"/>
<path d="M7.91463 11.6214C4.82182 12.0389 2.21355 13.9358 0.868181 16.7451C0.466116 17.5905 0.167144 18.6575 0.053741 19.6575C-0.0287339 20.4049 -0.0132699 22.4926 0.0795144 22.8431C0.311475 23.7349 0.997048 24.4256 1.88365 24.6575C2.1517 24.7246 3.05892 24.7349 9.07443 24.7349C15.0899 24.7349 15.9972 24.7246 16.2652 24.6575C17.1518 24.4256 17.8374 23.7349 18.0694 22.8431C18.1621 22.4874 18.1776 20.3946 18.0951 19.6575C17.8993 17.9461 17.2188 16.2812 16.1982 14.9925C15.8632 14.575 15.0899 13.8018 14.6673 13.4719C12.7652 11.977 10.2858 11.2966 7.91463 11.6214Z" fill="white"/>
</svg>
