<svg width="24" height="24" viewBox="0 0 24 24" fill="none" xmlns="http://www.w3.org/2000/svg">
<circle r="11.9557" transform="matrix(-1 0 0 1 11.9557 11.9557)" fill="#00CE7B"/>
<path fill-rule="evenodd" clip-rule="evenodd" d="M8.83054 15.006C10.8107 16.592 13.7092 16.4671 15.5448 14.6315C17.5144 12.6621 17.5144 9.46886 15.5448 7.49935C13.5753 5.52984 10.3821 5.52984 8.41259 7.49935C6.57699 9.33493 6.45214 12.2334 8.03811 14.2136L4.1861 18.0656C3.96726 18.2844 3.96726 18.6392 4.1861 18.8581C4.40487 19.0769 4.75969 19.0769 4.97853 18.8581L8.83054 15.006ZM14.7524 13.8391C16.2842 12.3072 16.2842 9.82366 14.7524 8.29182C13.2205 6.75998 10.7369 6.75998 9.20501 8.29182C7.67433 9.82254 7.6732 12.3036 9.20165 13.8358L9.20509 13.8391L9.20845 13.8425C10.7406 15.3709 13.2216 15.3698 14.7524 13.8391Z" fill="white"/>
</svg>
