<svg width="26" height="21" viewBox="0 0 26 21" fill="none" xmlns="http://www.w3.org/2000/svg">
<path d="M20.5833 0H5.41667C2.42992 0 0 2.35515 0 5.25V15.75C0 18.6448 2.42992 21 5.41667 21H20.5833C23.5701 21 26 18.6448 26 15.75V5.25C26 2.35515 23.5701 0 20.5833 0ZM4.33333 9.45H10.8333C11.4313 9.45 11.9167 9.9204 11.9167 10.5C11.9167 11.0796 11.4313 11.55 10.8333 11.55H4.33333C3.73533 11.55 3.25 11.0796 3.25 10.5C3.25 9.9204 3.73533 9.45 4.33333 9.45ZM21.6667 15.75H4.33333C3.73533 15.75 3.25 15.2796 3.25 14.7C3.25 14.1204 3.73533 13.65 4.33333 13.65H21.6667C22.2647 13.65 22.75 14.1204 22.75 14.7C22.75 15.2796 22.2647 15.75 21.6667 15.75ZM22.75 9.45C22.75 10.6081 21.7783 11.55 20.5833 11.55H16.25C15.0551 11.55 14.0833 10.6081 14.0833 9.45V7.35C14.0833 6.19185 15.0551 5.25 16.25 5.25H20.5833C21.7783 5.25 22.75 6.19185 22.75 7.35V9.45ZM20.5833 7.35V9.45H16.25V7.35H20.5833Z" fill="#FFBB38"/>
</svg>
