<svg width="18" height="19" viewBox="0 0 18 19" fill="none" xmlns="http://www.w3.org/2000/svg">
<path d="M3.39125 0.116463C2.72813 0.49826 0.706617 2.83325 0.127894 3.8862C-0.00874941 4.13136 -0.0127683 4.15547 0.0113451 4.41268C0.0997612 5.27273 0.481558 6.50653 1.00803 7.63585C1.59078 8.87769 2.57541 10.3647 3.69267 11.6949C4.26335 12.3741 5.60165 13.7124 6.26477 14.2751C8.66808 16.3006 11.0915 17.5706 13.2738 17.9444C13.4707 17.9765 13.6837 18.0046 13.752 18.0046C13.9811 18.0046 14.6161 17.5947 15.5766 16.8311C16.8144 15.8425 17.791 14.8779 17.9558 14.476C18.0924 14.1505 17.8272 13.8491 16.8667 13.2101C15.4721 12.2897 14.174 11.5583 13.5591 11.3533C13.2738 11.2569 13.2496 11.2529 13.109 11.3132C12.912 11.3935 12.7875 11.5181 12.2329 12.1571C11.9837 12.4425 11.6983 12.7559 11.6019 12.8524L11.421 13.0252L11.1638 12.9609C10.3279 12.7439 9.19456 12.1531 8.25413 11.4418C7.84018 11.1243 7.14089 10.4491 6.75508 9.98691C6.02364 9.11481 5.33238 7.86091 5.05508 6.90039L4.96666 6.58691L5.18368 6.36587C5.30425 6.24128 5.60165 5.97202 5.84278 5.76705C6.40543 5.29282 6.60638 5.07982 6.68274 4.89495C6.74302 4.75831 6.739 4.72615 6.66264 4.48502C6.43758 3.75358 4.79385 0.984549 4.19905 0.333485C3.8695 -0.0282173 3.71678 -0.0724258 3.39125 0.116463Z" fill="#FFBB38"/>
<path d="M9.64062 0.643065V1.28609H9.83353C10.6695 1.28609 11.7787 1.55938 12.6428 1.96931C14.1177 2.67262 15.2309 3.76174 15.9503 5.20453C16.4004 6.10878 16.5933 6.78798 16.6818 7.80477L16.73 8.35938H17.365H18V8.18254C18 7.87309 17.9236 7.18987 17.8352 6.73172C17.5981 5.48987 16.9349 4.0712 16.1472 3.11871C14.7045 1.37451 12.7754 0.317533 10.573 0.0603237C10.2917 0.0281725 9.96616 4.00543e-05 9.85363 4.00543e-05H9.64062V0.643065Z" fill="#FFBB38"/>
<path d="M9.64062 3.84614V4.48916L9.95812 4.5173C10.8945 4.59366 11.7104 4.98349 12.3936 5.68278C13.0446 6.3459 13.4063 7.13361 13.4827 8.0459L13.5108 8.35938H14.1458H14.7848V8.1946C14.7848 7.63999 14.5397 6.65536 14.2584 6.10075C13.768 5.12415 12.9 4.24401 11.9515 3.76978C11.3527 3.46836 10.6855 3.28349 10.0063 3.23124L9.64062 3.20311V3.84614Z" fill="#FFBB38"/>
</svg>
