<svg width="28" height="30" viewBox="0 0 28 30" fill="none" xmlns="http://www.w3.org/2000/svg">
<path d="M13.1265 0.0193052C11.8757 0.181904 10.5749 0.657193 9.59306 1.31384C9.074 1.66406 8.91765 1.79539 8.32354 2.37699C7.24789 3.44014 6.48492 4.8535 6.14722 6.4232C5.98462 7.1674 5.98462 8.8059 6.14722 9.5501C6.83514 12.7521 9.2366 15.1535 12.4385 15.8414C13.1827 16.004 14.8212 16.004 15.5654 15.8414C18.7737 15.1473 21.1626 12.7583 21.8568 9.5501C22.0194 8.8059 22.0194 7.1674 21.8568 6.4232C21.1626 3.215 18.7674 0.819793 15.5654 0.131874C15.1089 0.0380669 13.5642 -0.0369797 13.1265 0.0193052Z" fill="white"/>
<path d="M6.04072 15.1785C4.86501 15.7726 4.00824 16.4167 3.04515 17.4236C1.58176 18.9433 0.5749 20.9195 0.174657 23.0082C0.0620882 23.5898 0.037073 24.0276 0.0120578 25.4347C-0.0254651 27.3359 0.0120577 27.6673 0.305986 28.299C0.531123 28.7805 1.13774 29.4121 1.60678 29.6498C2.3072 30.0062 2.16337 30 9.01128 30H15.3089L14.671 29.3559C14.3208 29.0056 13.8517 28.4616 13.6391 28.1551C11.6504 25.3347 11.469 21.5386 13.1826 18.5555C13.5203 17.9614 13.5203 17.9489 12.995 17.9364C12.8699 17.9302 12.4759 17.8739 12.1194 17.7988C10.3246 17.4424 8.69859 16.6294 7.26647 15.3723C6.95378 15.0909 6.68487 14.8658 6.67236 14.8658C6.65985 14.8658 6.37843 15.0096 6.04072 15.1785Z" fill="white"/>
<path d="M20.0365 16.06C18.5356 16.2789 17.141 16.9793 16.0653 18.055C13.4512 20.6691 13.3137 24.7841 15.7401 27.6045C17.0785 29.1617 19.2423 30.0873 21.281 29.981C22.4317 29.9247 23.2635 29.6933 24.2703 29.1742C27.2659 27.6108 28.7105 24.0524 27.6599 20.8317C26.8469 18.3364 24.6581 16.4728 22.069 16.085C21.4186 15.985 20.6244 15.9725 20.0365 16.06ZM21.5562 20.1625C21.9189 20.4314 21.9752 20.5753 21.9939 21.307L22.019 21.9824L22.6944 22.0074C23.2635 22.0199 23.4011 22.0449 23.5449 22.1575C23.8763 22.4014 23.9764 22.6015 23.9764 22.9955C23.9764 23.3895 23.8763 23.5896 23.5449 23.8335C23.4011 23.9461 23.2635 23.9711 22.6944 23.9836L22.019 24.0086L21.9939 24.684C21.9752 25.4157 21.9189 25.5595 21.5437 25.8347C21.2998 26.0161 20.7119 26.0161 20.468 25.8347C20.0928 25.5595 20.0365 25.4157 20.0177 24.684L19.9927 24.0086L19.3173 23.9836C18.5856 23.9648 18.4418 23.9085 18.1666 23.5333C17.9853 23.2894 17.9853 22.7016 18.1666 22.4577C18.4418 22.0824 18.5856 22.0262 19.3236 22.0074L20.0052 21.9824V21.4008C20.0052 20.6003 20.1428 20.2876 20.5993 20.0812C20.8495 19.9624 21.3435 20.0062 21.5562 20.1625Z" fill="white"/>
</svg>
