<svg width="37" height="34" viewBox="0 0 37 34" fill="none" xmlns="http://www.w3.org/2000/svg">
<path d="M30.5651 3.84522V1.85752C30.5651 0.83156 29.7298 0 28.6991 0H1.86596C0.835338 0 0 0.83156 0 1.85752V3.84607H30.5651V3.84522Z" fill="white"/>
<path d="M29.9543 16.2981C29.2196 16.4291 28.5546 16.7854 28.0385 17.3283C26.7265 18.6925 26.7334 20.807 28.0565 22.1687C28.6742 22.8092 29.4932 23.1732 30.3999 23.2203C32.0629 23.3042 33.5185 22.2269 33.9719 20.5783C34.0854 20.1784 34.0854 19.2972 33.9719 18.8972C33.5951 17.5253 32.5206 16.5353 31.1604 16.2989C30.7879 16.2338 30.3122 16.2338 29.9543 16.2989V16.2981Z" fill="white"/>
<path d="M29.7426 24.4535C27.5489 24.7481 25.6993 26.0875 24.7452 28.0709C24.4604 28.6678 24.248 29.4206 24.1679 30.1271C24.1094 30.6547 24.1206 32.1285 24.186 32.376C24.3503 33.0055 24.8364 33.4936 25.4653 33.6572C25.6554 33.7043 26.2989 33.712 30.565 33.712C34.8312 33.712 35.4747 33.7052 35.6648 33.6572C36.2937 33.4936 36.7797 33.0055 36.9441 32.376C37.0094 32.1251 37.0206 30.6478 36.9621 30.1271C36.8236 28.9188 36.341 27.7438 35.6166 26.8334C35.3792 26.5388 34.8303 25.9925 34.531 25.7595C33.182 24.7044 31.4236 24.224 29.7417 24.4527L29.7426 24.4535Z" fill="white"/>
<path d="M22.4578 29.9387C22.5593 29.0464 22.8268 28.0992 23.1916 27.3353C24.0037 25.6465 25.3475 24.3182 26.9837 23.52C26.927 23.4661 26.871 23.4113 26.816 23.3548C24.8588 21.3414 24.8468 18.1753 26.7919 16.1482C27.561 15.3406 28.5486 14.8105 29.648 14.6135C29.9328 14.5621 30.2477 14.5365 30.5642 14.5373V12.3081H28.2621C27.9739 12.3081 27.7408 12.076 27.7408 11.7891V9.48201C27.7408 9.19512 27.9739 8.96303 28.2621 8.96303H30.5642V7.03871H0V8.96303H2.13695C2.42515 8.96303 2.65828 9.19512 2.65828 9.48201V11.7891C2.65828 12.076 2.42515 12.3081 2.13695 12.3081H0V28.7817C0 29.8068 0.835338 30.6384 1.86596 30.6384H22.4191C22.4285 30.3207 22.444 30.0612 22.4578 29.9387ZM8.7319 11.6573C8.7319 12.0161 8.43941 12.3073 8.07895 12.3073H4.2111C3.85064 12.3073 3.55814 12.0161 3.55814 11.6573V9.61475C3.55814 9.25592 3.85064 8.96474 4.2111 8.96474H8.07895C8.43941 8.96474 8.7319 9.25592 8.7319 9.61475V11.6573ZM9.62058 11.6573V9.61475C9.62058 9.25592 9.91308 8.96474 10.2735 8.96474H26.0021C26.3626 8.96474 26.6551 9.25592 26.6551 9.61475V11.6573C26.6551 12.0161 26.3626 12.3073 26.0021 12.3073H10.2735C9.91308 12.3073 9.62058 12.0161 9.62058 11.6573Z" fill="white"/>
</svg>
