<svg width="21" height="21" viewBox="0 0 21 21" fill="none" xmlns="http://www.w3.org/2000/svg">
<path d="M9.65459 0.021349C8.73675 0.107397 8.02788 0.242615 7.3272 0.463882C3.57387 1.65216 0.844923 4.85642 0.250782 8.76136C0.213904 8.99902 0.172929 9.5276 0.160636 9.93325C0.0950762 11.8796 0.574486 13.748 1.57838 15.4608L1.69721 15.6657L0.86541 17.8783C0.406488 19.0953 0.0172233 20.1607 0.0049307 20.2467C-0.0278495 20.4311 0.107369 20.7384 0.275367 20.8613C0.537609 21.0498 0.553998 21.0498 3.09446 20.0951L5.44644 19.2141L5.77014 19.378C7.96641 20.4803 10.4946 20.763 12.8711 20.1689C15.428 19.5296 17.6898 17.8824 19.0789 15.6452C21.144 12.3098 21.144 8.16312 19.0789 4.82774C17.2104 1.81606 13.83 -0.0442104 10.3102 0.000862122C10.0275 0.000862122 9.73245 0.013155 9.65459 0.021349ZM7.6673 5.2334C8.61382 5.69232 9.50299 7.15923 9.24484 7.83532C9.22435 7.89269 9.06865 8.08937 8.90065 8.27376C8.56875 8.63024 8.34339 9.01951 8.34339 9.23667C8.34339 9.55628 8.73265 10.0849 9.59723 10.9412C10.5151 11.8509 10.8757 12.0967 11.2567 12.0926C11.5026 12.0885 11.7238 11.9615 12.191 11.5436C12.613 11.1748 12.7687 11.1133 13.1088 11.1748C13.662 11.2772 14.252 11.6255 14.7765 12.1623C15.3297 12.7278 15.4567 13.2236 15.1944 13.7685C14.7765 14.629 13.8218 15.1945 12.7892 15.1945C11.6583 15.1945 10.0766 14.4528 8.72855 13.2932C8.18358 12.8302 7.31491 11.9369 6.93384 11.4657C4.75396 8.73678 4.67611 5.98734 6.75765 5.21291C7.11413 5.08179 7.36408 5.08589 7.6673 5.2334Z" fill="#FFBB38"/>
</svg>
